<svg version="1.1" preserveAspectRatio="none" xmlns="http://www.w3.org/2000/svg" width="500" height="500" viewBox="0 0 500 500"><rect width="100%" height="100%" fill="#F7F7F7" fill-opacity="1"/><svg viewBox="58.7525 208.7543 430.3054 174.6" width="333" height="135.11752350772264" x="83.5px" y="182.4412px" xmlns="http://www.w3.org/2000/svg" xmlns:xlink="http://www.w3.org/1999/xlink" preserveAspectRatio="none"><defs></defs><style>.companyName {fill:#282727;fill-opacity:1;}.icon3-str {stroke:#E17350;stroke-opacity:1;}.shape {fill:#F3CCD5;fill-opacity:0.95;}.shapeStroke-str {stroke:#282727;stroke-opacity:0.1;}.text {fill:#282727;fill-opacity:1;}</style><g opacity="1" transform="rotate(0 58.7525 208.7543)">
<svg width="174.6" height="174.6" x="58.7525" y="208.7543" version="1.1" preserveAspectRatio="none" viewBox="0 0 174.6 174.6">
  <defs><rect x="0" y="0" width="174.6" height="174.6" rx="0px" ry="0px" id="id-o0jQam8yd1688608167664"></rect></defs><use class="shape shapeStroke-str" style="stroke-width:0;" xlink:href="#id-o0jQam8yd1688608167664"></use>
</svg>
</g><g opacity="1" transform="rotate(0 98.7525 324.7543)">
<svg width="302.9112" height="18.6" x="98.7525" y="324.7543" version="1.1" preserveAspectRatio="none" viewBox="3.96 -29.88 616.0799999999999 37.84">
  <g transform="matrix(1 0 0 1 0 0)" class="text"><path id="id-6izo4zJp29" d="M14.80-21.20Q17.76-21.20 20.16-19.86Q22.56-18.52 23.92-16.08Q25.28-13.64 25.28-10.52L25.28-10.52Q25.28-7.40 23.92-4.96Q22.56-2.52 20.16-1.16Q17.76 0.20 14.80 0.20L14.80 0.20Q12.16 0.20 10.06-0.92Q7.96-2.04 6.68-4.16L6.68-4.16L6.68 0L3.96 0L3.96-29.68L6.80-29.68L6.80-17.04Q8.12-19.08 10.18-20.14Q12.24-21.20 14.80-21.20L14.80-21.20ZM14.60-2.32Q16.80-2.32 18.60-3.34Q20.40-4.36 21.42-6.24Q22.44-8.12 22.44-10.52L22.44-10.52Q22.44-12.92 21.42-14.80Q20.40-16.68 18.60-17.70Q16.80-18.72 14.60-18.72L14.60-18.72Q12.36-18.72 10.58-17.70Q8.80-16.68 7.78-14.80Q6.76-12.92 6.76-10.52L6.76-10.52Q6.76-8.12 7.78-6.24Q8.80-4.36 10.58-3.34Q12.36-2.32 14.60-2.32L14.60-2.32Z M48.80-21.04L51.64-21.04L51.64 0L48.92 0L48.92-3.84Q47.80-1.92 45.84-0.86Q43.88 0.20 41.36 0.20L41.36 0.20Q37.24 0.20 34.86-2.10Q32.48-4.40 32.48-8.84L32.48-8.84L32.48-21.04L35.32-21.04L35.32-9.12Q35.32-5.80 36.96-4.08Q38.60-2.36 41.64-2.36L41.64-2.36Q44.96-2.36 46.88-4.38Q48.80-6.40 48.80-10L48.80-10L48.80-21.04Z M61.20 0L61.20-21.04L64.04-21.04L64.04 0L61.20 0ZM62.64-25.64Q61.76-25.64 61.16-26.24Q60.56-26.84 60.56-27.68L60.56-27.68Q60.56-28.48 61.16-29.08Q61.76-29.68 62.64-29.68L62.64-29.68Q63.52-29.68 64.12-29.10Q64.72-28.52 64.72-27.72L64.72-27.72Q64.72-26.84 64.12-26.24Q63.52-25.64 62.64-25.64L62.64-25.64Z M73.56 0L73.56-29.68L76.40-29.68L76.40 0L73.56 0Z M102.28-29.68L105.12-29.68L105.12 0L102.40 0L102.40-4.16Q101.12-2.04 99.02-0.92Q96.92 0.20 94.28 0.20L94.28 0.20Q91.32 0.20 88.92-1.16Q86.52-2.52 85.16-4.96Q83.80-7.40 83.80-10.52L83.80-10.52Q83.80-13.64 85.16-16.08Q86.52-18.52 88.92-19.86Q91.32-21.20 94.28-21.20L94.28-21.20Q96.84-21.20 98.90-20.14Q100.96-19.08 102.28-17.04L102.28-17.04L102.28-29.68ZM94.52-2.32Q96.72-2.32 98.50-3.34Q100.28-4.36 101.30-6.24Q102.32-8.12 102.32-10.52L102.32-10.52Q102.32-12.92 101.30-14.80Q100.28-16.68 98.50-17.70Q96.72-18.72 94.52-18.72L94.52-18.72Q92.28-18.72 90.50-17.70Q88.72-16.68 87.70-14.80Q86.68-12.92 86.68-10.52L86.68-10.52Q86.68-8.12 87.70-6.24Q88.72-4.36 90.50-3.34Q92.28-2.32 94.52-2.32L94.52-2.32Z M114.64 0L114.64-21.04L117.48-21.04L117.48 0L114.64 0ZM116.08-25.64Q115.20-25.64 114.60-26.24Q114-26.84 114-27.68L114-27.68Q114-28.48 114.60-29.08Q115.20-29.68 116.08-29.68L116.08-29.68Q116.96-29.68 117.56-29.10Q118.16-28.52 118.16-27.72L118.16-27.72Q118.16-26.84 117.56-26.24Q116.96-25.64 116.08-25.64L116.08-25.64Z M137.72-21.20Q141.68-21.20 144.02-18.90Q146.36-16.60 146.36-12.20L146.36-12.20L146.36 0L143.52 0L143.52-11.92Q143.52-15.20 141.88-16.92Q140.24-18.64 137.20-18.64L137.20-18.64Q133.80-18.64 131.82-16.62Q129.84-14.60 129.84-11.04L129.84-11.04L129.84 0L127.00 0L127.00-21.04L129.72-21.04L129.72-17.16Q130.88-19.08 132.94-20.14Q135-21.20 137.72-21.20L137.72-21.20Z M172.52-21.04L175.24-21.04L175.24-2.56Q175.24 2.80 172.62 5.38Q170 7.96 164.72 7.96L164.72 7.96Q161.80 7.96 159.18 7.10Q156.56 6.24 154.92 4.72L154.92 4.72L156.36 2.56Q157.88 3.92 160.06 4.68Q162.24 5.44 164.64 5.44L164.64 5.44Q168.64 5.44 170.52 3.58Q172.40 1.72 172.40-2.20L172.40-2.20L172.40-4.88Q171.08-2.88 168.94-1.84Q166.80-0.80 164.20-0.80L164.20-0.80Q161.24-0.80 158.82-2.10Q156.40-3.40 155.02-5.74Q153.64-8.08 153.64-11.04L153.64-11.04Q153.64-14 155.02-16.32Q156.40-18.64 158.80-19.92Q161.20-21.20 164.20-21.20L164.20-21.20Q166.88-21.20 169.04-20.12Q171.20-19.04 172.52-17L172.52-17L172.52-21.04ZM164.48-3.32Q166.76-3.32 168.60-4.30Q170.44-5.28 171.46-7.04Q172.48-8.80 172.48-11.04L172.48-11.04Q172.48-13.28 171.46-15.02Q170.44-16.76 168.62-17.74Q166.80-18.72 164.48-18.72L164.48-18.72Q162.20-18.72 160.38-17.76Q158.56-16.80 157.54-15.04Q156.52-13.28 156.52-11.04L156.52-11.04Q156.52-8.80 157.54-7.04Q158.56-5.28 160.38-4.30Q162.20-3.32 164.48-3.32L164.48-3.32Z M206.96-3.32L207.96-1.28Q207.16-0.56 205.98-0.18Q204.80 0.20 203.52 0.20L203.52 0.20Q200.56 0.20 198.96-1.40Q197.36-3 197.36-5.92L197.36-5.92L197.36-18.64L193.60-18.64L193.60-21.04L197.36-21.04L197.36-25.64L200.20-25.64L200.20-21.04L206.60-21.04L206.60-18.64L200.20-18.64L200.20-6.08Q200.20-4.20 201.14-3.22Q202.08-2.24 203.84-2.24L203.84-2.24Q204.72-2.24 205.54-2.52Q206.36-2.80 206.96-3.32L206.96-3.32Z M225.44-21.20Q229.40-21.20 231.74-18.90Q234.08-16.60 234.08-12.20L234.08-12.20L234.08 0L231.24 0L231.24-11.92Q231.24-15.20 229.60-16.92Q227.96-18.64 224.92-18.64L224.92-18.64Q221.52-18.64 219.54-16.62Q217.56-14.60 217.56-11.04L217.56-11.04L217.56 0L214.72 0L214.72-29.68L217.56-29.68L217.56-17.36Q218.72-19.20 220.76-20.20Q222.80-21.20 225.44-21.20L225.44-21.20Z M261.84-10.52L261.80-9.64L244.20-9.64Q244.44-6.36 246.72-4.34Q249-2.32 252.48-2.32L252.48-2.32Q254.44-2.32 256.08-3.02Q257.72-3.72 258.92-5.08L258.92-5.08L260.52-3.24Q259.12-1.56 257.02-0.68Q254.92 0.20 252.40 0.20L252.40 0.20Q249.16 0.20 246.66-1.18Q244.16-2.56 242.76-5Q241.36-7.44 241.36-10.52L241.36-10.52Q241.36-13.60 242.70-16.04Q244.04-18.48 246.38-19.84Q248.72-21.20 251.64-21.20L251.64-21.20Q254.56-21.20 256.88-19.84Q259.20-18.48 260.52-16.06Q261.84-13.64 261.84-10.52L261.84-10.52ZM251.64-18.76Q248.60-18.76 246.54-16.82Q244.48-14.88 244.20-11.76L244.20-11.76L259.12-11.76Q258.84-14.88 256.78-16.82Q254.72-18.76 251.64-18.76L251.64-18.76Z M288.28-27.48Q286.44-27.48 285.50-26.48Q284.56-25.48 284.56-23.52L284.56-23.52L284.56-21.04L291.04-21.04L291.04-18.64L284.64-18.64L284.64 0L281.80 0L281.80-18.64L278.04-18.64L278.04-21.04L281.80-21.04L281.80-23.64Q281.80-26.52 283.46-28.20Q285.12-29.88 288.16-29.88L288.16-29.88Q289.36-29.88 290.48-29.54Q291.60-29.20 292.36-28.56L292.36-28.56L291.40-26.44Q290.16-27.48 288.28-27.48L288.28-27.48Z M312.60-21.04L315.44-21.04L315.44 0L312.72 0L312.72-3.84Q311.60-1.92 309.64-0.86Q307.68 0.20 305.16 0.20L305.16 0.20Q301.04 0.20 298.66-2.10Q296.28-4.40 296.28-8.84L296.28-8.84L296.28-21.04L299.12-21.04L299.12-9.12Q299.12-5.80 300.76-4.08Q302.40-2.36 305.44-2.36L305.44-2.36Q308.76-2.36 310.68-4.38Q312.60-6.40 312.60-10L312.60-10L312.60-21.04Z M335.08-3.32L336.08-1.28Q335.28-0.56 334.10-0.18Q332.92 0.20 331.64 0.20L331.64 0.20Q328.68 0.20 327.08-1.40Q325.48-3 325.48-5.92L325.48-5.92L325.48-18.64L321.72-18.64L321.72-21.04L325.48-21.04L325.48-25.64L328.32-25.64L328.32-21.04L334.72-21.04L334.72-18.64L328.32-18.64L328.32-6.08Q328.32-4.20 329.26-3.22Q330.20-2.24 331.96-2.24L331.96-2.24Q332.84-2.24 333.66-2.52Q334.48-2.80 335.08-3.32L335.08-3.32Z M358.96-21.04L361.80-21.04L361.80 0L359.08 0L359.08-3.84Q357.96-1.92 356.00-0.86Q354.04 0.20 351.52 0.20L351.52 0.20Q347.40 0.20 345.02-2.10Q342.64-4.40 342.64-8.84L342.64-8.84L342.64-21.04L345.48-21.04L345.48-9.12Q345.48-5.80 347.12-4.08Q348.76-2.36 351.80-2.36L351.80-2.36Q355.12-2.36 357.04-4.38Q358.96-6.40 358.96-10L358.96-10L358.96-21.04Z M374.08-16.92Q375.08-19.04 377.06-20.12Q379.04-21.20 381.96-21.20L381.96-21.20L381.96-18.44L381.28-18.48Q377.96-18.48 376.08-16.44Q374.20-14.40 374.20-10.72L374.20-10.72L374.20 0L371.36 0L371.36-21.04L374.08-21.04L374.08-16.92Z M406.84-10.52L406.80-9.64L389.20-9.64Q389.44-6.36 391.72-4.34Q394.00-2.32 397.48-2.32L397.48-2.32Q399.44-2.32 401.08-3.02Q402.72-3.72 403.92-5.08L403.92-5.08L405.52-3.24Q404.12-1.56 402.02-0.68Q399.92 0.20 397.40 0.20L397.40 0.20Q394.16 0.20 391.66-1.18Q389.16-2.56 387.76-5Q386.36-7.44 386.36-10.52L386.36-10.52Q386.36-13.60 387.70-16.04Q389.04-18.48 391.38-19.84Q393.72-21.20 396.64-21.20L396.64-21.20Q399.56-21.20 401.88-19.84Q404.20-18.48 405.52-16.06Q406.84-13.64 406.84-10.52L406.84-10.52ZM396.64-18.76Q393.60-18.76 391.54-16.82Q389.48-14.88 389.20-11.76L389.20-11.76L404.12-11.76Q403.84-14.88 401.78-16.82Q399.72-18.76 396.64-18.76L396.64-18.76Z M454.60-21.04L457.20-21.04L449.24 0L446.56 0L439.92-17.24L433.28 0L430.60 0L422.68-21.04L425.40-21.04L432.00-3.16L438.76-21.04L441.20-21.04L447.92-3.16L454.60-21.04Z M463.08 0L463.08-21.04L465.92-21.04L465.92 0L463.08 0ZM464.52-25.64Q463.64-25.64 463.04-26.24Q462.44-26.84 462.44-27.68L462.44-27.68Q462.44-28.48 463.04-29.08Q463.64-29.68 464.52-29.68L464.52-29.68Q465.40-29.68 466.00-29.10Q466.60-28.52 466.60-27.72L466.60-27.72Q466.60-26.84 466.00-26.24Q465.40-25.64 464.52-25.64L464.52-25.64Z M485.52-3.32L486.52-1.28Q485.72-0.56 484.54-0.18Q483.36 0.20 482.08 0.20L482.08 0.20Q479.12 0.20 477.52-1.40Q475.92-3 475.92-5.92L475.92-5.92L475.92-18.64L472.16-18.64L472.16-21.04L475.92-21.04L475.92-25.64L478.76-25.64L478.76-21.04L485.16-21.04L485.16-18.64L478.76-18.64L478.76-6.08Q478.76-4.20 479.70-3.22Q480.64-2.24 482.40-2.24L482.40-2.24Q483.28-2.24 484.10-2.52Q484.92-2.80 485.52-3.32L485.52-3.32Z M504.00-21.20Q507.96-21.20 510.30-18.90Q512.64-16.60 512.64-12.20L512.64-12.20L512.64 0L509.80 0L509.80-11.92Q509.80-15.20 508.16-16.92Q506.52-18.64 503.48-18.64L503.48-18.64Q500.08-18.64 498.10-16.62Q496.12-14.60 496.12-11.04L496.12-11.04L496.12 0L493.28 0L493.28-29.68L496.12-29.68L496.12-17.36Q497.28-19.20 499.32-20.20Q501.36-21.20 504.00-21.20L504.00-21.20Z M544.12-3.32L545.12-1.28Q544.32-0.56 543.14-0.18Q541.96 0.20 540.68 0.20L540.68 0.20Q537.72 0.20 536.12-1.40Q534.52-3 534.52-5.92L534.52-5.92L534.52-18.64L530.76-18.64L530.76-21.04L534.52-21.04L534.52-25.64L537.36-25.64L537.36-21.04L543.76-21.04L543.76-18.64L537.36-18.64L537.36-6.08Q537.36-4.20 538.30-3.22Q539.24-2.24 541.00-2.24L541.00-2.24Q541.88-2.24 542.70-2.52Q543.52-2.80 544.12-3.32L544.12-3.32Z M569.48-10.52L569.44-9.64L551.84-9.64Q552.08-6.36 554.36-4.34Q556.64-2.32 560.12-2.32L560.12-2.32Q562.08-2.32 563.72-3.02Q565.36-3.72 566.56-5.08L566.56-5.08L568.16-3.24Q566.76-1.56 564.66-0.68Q562.56 0.20 560.04 0.20L560.04 0.20Q556.80 0.20 554.30-1.18Q551.80-2.56 550.40-5Q549.00-7.44 549.00-10.52L549.00-10.52Q549.00-13.60 550.34-16.04Q551.68-18.48 554.02-19.84Q556.36-21.20 559.28-21.20L559.28-21.20Q562.20-21.20 564.52-19.84Q566.84-18.48 568.16-16.06Q569.48-13.64 569.48-10.52L569.48-10.52ZM559.28-18.76Q556.24-18.76 554.18-16.82Q552.12-14.88 551.84-11.76L551.84-11.76L566.76-11.76Q566.48-14.88 564.42-16.82Q562.36-18.76 559.28-18.76L559.28-18.76Z M585.60 0.20Q582.48 0.20 580.02-1.16Q577.56-2.52 576.16-4.98Q574.76-7.44 574.76-10.52L574.76-10.52Q574.76-13.60 576.16-16.04Q577.56-18.48 580.02-19.84Q582.48-21.20 585.60-21.20L585.60-21.20Q588.32-21.20 590.46-20.14Q592.60-19.08 593.84-17.04L593.84-17.04L591.72-15.60Q590.68-17.16 589.08-17.94Q587.48-18.72 585.60-18.72L585.60-18.72Q583.32-18.72 581.50-17.70Q579.68-16.68 578.66-14.80Q577.64-12.92 577.64-10.52L577.64-10.52Q577.64-8.08 578.66-6.22Q579.68-4.36 581.50-3.34Q583.32-2.32 585.60-2.32L585.60-2.32Q587.48-2.32 589.08-3.08Q590.68-3.84 591.72-5.40L591.72-5.40L593.84-3.96Q592.60-1.92 590.44-0.86Q588.28 0.20 585.60 0.20L585.60 0.20Z M611.40-21.20Q615.36-21.20 617.70-18.90Q620.04-16.60 620.04-12.20L620.04-12.20L620.04 0L617.20 0L617.20-11.92Q617.20-15.20 615.56-16.92Q613.92-18.64 610.88-18.64L610.88-18.64Q607.48-18.64 605.50-16.62Q603.52-14.60 603.52-11.04L603.52-11.04L603.52 0L600.68 0L600.68-29.68L603.52-29.68L603.52-17.36Q604.68-19.20 606.72-20.20Q608.76-21.20 611.40-21.20L611.40-21.20Z"/></g>
</svg>
</g><g opacity="1" transform="rotate(0 98.7525 248.7543)">
<svg width="390.3054" height="60" x="98.7525" y="248.7543" version="1.1" preserveAspectRatio="none" viewBox="0.8 -27.6 182.39999999999998 28.040000000000003">
  <g transform="matrix(1 0 0 1 0 0)" class="companyName"><path id="id-D6z1nYkh9" d="M5.48 0L5.48-1.32Q7.40-1.32 8.14-1.46Q8.88-1.60 9.08-2Q9.28-2.40 9.28-3.52L9.28-3.52L9.28-24.84L7.36-24.84Q5.40-24.84 4.38-24.36Q3.36-23.88 2.86-22.84Q2.36-21.80 1.80-19.64L1.80-19.64L0.80-19.64L0.80-26.40L22.68-26.40L22.68-19.64L21.68-19.64Q21.12-21.84 20.62-22.86Q20.12-23.88 19.12-24.36Q18.12-24.84 16.16-24.84L16.16-24.84L14.16-24.84L14.16-3.52Q14.16-2.48 14.44-2.04Q14.72-1.60 15.46-1.46Q16.20-1.32 18-1.32L18-1.32L18 0L5.48 0Z M40.28-9.68L40.28-9.16L28.28-9.16Q28.40-5.72 29.60-3.92Q30.80-2.12 33.64-2.12L33.64-2.12Q35.60-2.12 36.88-3.02Q38.16-3.92 38.92-5.72L38.92-5.72L40.16-5Q39.16-2.56 37.36-1.08Q35.56 0.40 31.96 0.40L31.96 0.40Q23.36 0.40 23.36-9.32L23.36-9.32Q23.36-14.24 25.54-16.72Q27.72-19.20 31.92-19.20L31.92-19.20Q36.32-19.20 38.30-16.64Q40.28-14.08 40.28-9.68L40.28-9.68ZM28.24-10.76L35.40-10.76Q35.40-14.32 34.76-15.96Q34.12-17.60 32.08-17.60L32.08-17.60Q30.12-17.60 29.22-15.96Q28.32-14.32 28.24-10.76L28.24-10.76Z M53.20 0.40Q48.96 0.40 46.70-1.98Q44.44-4.36 44.44-9.20L44.44-9.20Q44.44-14.20 46.80-16.70Q49.16-19.20 53.60-19.20L53.60-19.20Q56.08-19.20 57.72-18.48Q59.36-17.76 60.12-16.62Q60.88-15.48 60.88-14.16L60.88-14.16Q60.88-12.96 60.26-12.28Q59.64-11.60 58.56-11.60L58.56-11.60Q57.48-11.60 56.90-12.24Q56.32-12.88 56.32-13.88L56.32-13.88Q56.32-14.48 56.50-14.88Q56.68-15.28 56.72-15.36L56.72-15.36Q57.00-15.84 57.00-16.16L57.00-16.16Q57.00-16.80 56.28-17.20Q55.56-17.60 54.20-17.60L54.20-17.60Q51.84-17.60 50.60-16Q49.36-14.40 49.36-10.20L49.36-10.20Q49.36-6.08 50.68-4.08Q52.00-2.08 54.76-2.08L54.76-2.08Q57.04-2.08 58.18-3.12Q59.32-4.16 60.12-5.76L60.12-5.76L61.12-5.16Q60.20-2.44 58.38-1.02Q56.56 0.40 53.20 0.40L53.20 0.40Z M83.12-3.32Q83.12-2.48 83.30-2.06Q83.48-1.64 84.04-1.48Q84.60-1.32 85.76-1.32L85.76-1.32L85.76 0L76.20 0L76.20-1.32Q77.24-1.32 77.72-1.48Q78.20-1.64 78.36-2Q78.52-2.36 78.52-3.12L78.52-3.12L78.52-12.72Q78.52-14.60 77.62-15.60Q76.72-16.60 75-16.60L75-16.60Q72.48-16.60 70.92-14.48L70.92-14.48L70.92-3.12Q70.92-2.36 71.06-2Q71.20-1.64 71.66-1.48Q72.12-1.32 73.16-1.32L73.16-1.32L73.16 0L63.72 0L63.72-1.32Q64.92-1.32 65.44-1.48Q65.96-1.64 66.12-2.04Q66.28-2.44 66.28-3.32L66.28-3.32L66.28-23.48Q66.28-24.56 66.04-24.94Q65.80-25.32 65.16-25.32L65.16-25.32L63.96-25.32L63.96-26.68L69.76-27.60L70.92-27.60L70.92-16.44L70.96-16.44Q72.48-17.76 74.24-18.48Q76-19.20 77.76-19.20L77.76-19.20Q80.28-19.20 81.70-17.66Q83.12-16.12 83.12-13.32L83.12-13.32L83.12-3.32Z M96.24 0L89.96-16Q89.60-16.88 89.10-17.18Q88.60-17.48 87.36-17.48L87.36-17.48L87.36-18.80L96.56-18.80L96.56-17.48L95.16-17.48Q94.40-17.48 94.40-16.88L94.40-16.88Q94.40-16.72 94.48-16.40L94.48-16.40L99.04-4.44L99.16-4.44L103.36-16.32Q103.44-16.72 103.44-16.84L103.44-16.84Q103.44-17.48 102.64-17.48L102.64-17.48L101.08-17.48L101.08-18.80L108.36-18.80L108.36-17.48Q107.12-17.48 106.60-17.12Q106.08-16.76 105.72-15.84L105.72-15.84L99.20 0L96.24 0Z M126.32-9.68L126.32-9.16L114.32-9.16Q114.44-5.72 115.64-3.92Q116.84-2.12 119.68-2.12L119.68-2.12Q121.64-2.12 122.92-3.02Q124.20-3.92 124.96-5.72L124.96-5.72L126.20-5Q125.20-2.56 123.40-1.08Q121.60 0.40 118.00 0.40L118.00 0.40Q109.40 0.40 109.40-9.32L109.40-9.32Q109.40-14.24 111.58-16.72Q113.76-19.20 117.96-19.20L117.96-19.20Q122.36-19.20 124.34-16.64Q126.32-14.08 126.32-9.68L126.32-9.68ZM114.28-10.76L121.44-10.76Q121.44-14.32 120.80-15.96Q120.16-17.60 118.12-17.60L118.12-17.60Q116.16-17.60 115.26-15.96Q114.36-14.32 114.28-10.76L114.28-10.76Z M142.08-19.24Q143.80-19.24 144.62-18.26Q145.44-17.28 145.44-15.88L145.44-15.88Q145.44-14.56 144.76-13.82Q144.08-13.08 142.84-13.08L142.84-13.08Q141.76-13.08 141.14-13.64Q140.52-14.20 140.52-15.20L140.52-15.20Q140.52-15.80 140.70-16.16Q140.88-16.52 141.18-16.84Q141.48-17.16 141.48-17.28L141.48-17.28Q141.48-17.44 141.36-17.56Q141.24-17.68 140.96-17.68L140.96-17.68Q140.24-17.68 139.36-16.76Q138.48-15.84 137.84-14.30Q137.20-12.76 137.20-11L137.20-11L137.20-3.32Q137.20-2.44 137.42-2.04Q137.64-1.64 138.32-1.48Q139.00-1.32 140.52-1.32L140.52-1.32L140.52 0L129.96 0L129.96-1.32Q131.16-1.32 131.68-1.50Q132.20-1.68 132.36-2.08Q132.52-2.48 132.52-3.32L132.52-3.32L132.52-14.88Q132.52-15.96 132.28-16.34Q132.04-16.72 131.40-16.72L131.40-16.72L130.20-16.72L130.20-18.08L135.96-19L137.08-19L137.08-15.52L137.16-15.52Q138.92-19.24 142.08-19.24L142.08-19.24Z M155.48 0.44Q154.40 0.44 153.70 0.26Q153.00 0.08 152.04-0.24L152.04-0.24Q151.12-0.64 150.52-0.64L150.52-0.64Q150.04-0.64 149.78-0.46Q149.52-0.28 149.28 0.12L149.28 0.12L148.52 0.12L148.16-6.48L149.16-6.48Q149.92-4.08 151.58-2.60Q153.24-1.12 155.24-1.12L155.24-1.12Q156.68-1.12 157.48-1.90Q158.28-2.68 158.28-4L158.28-4Q158.28-4.84 157.92-5.38Q157.56-5.92 156.84-6.36Q156.12-6.80 154.48-7.60L154.48-7.60L153.68-8Q150.92-9.36 149.86-10.54Q148.80-11.72 148.80-13.60L148.80-13.60Q148.80-16.28 150.56-17.74Q152.32-19.20 155.36-19.20L155.36-19.20Q157.00-19.20 158.48-18.68L158.48-18.68Q159.36-18.44 159.68-18.44L159.68-18.44Q160.12-18.44 160.28-18.60Q160.44-18.76 160.50-18.94Q160.56-19.12 160.56-19.16L160.56-19.16L161.40-19.16L161.72-13.28L160.72-13.28Q160.24-15.20 158.86-16.40Q157.48-17.60 155.72-17.60L155.72-17.60Q154.48-17.60 153.66-17Q152.84-16.40 152.84-15.40L152.84-15.40Q152.84-13.60 155.56-12.36L155.56-12.36L156.80-11.80Q158.72-10.92 159.88-10.16Q161.04-9.40 161.72-8.30Q162.40-7.20 162.40-5.60L162.40-5.60Q162.40-2.88 160.50-1.22Q158.60 0.44 155.48 0.44L155.48 0.44Z M183.20-9.68L183.20-9.16L171.20-9.16Q171.32-5.72 172.52-3.92Q173.72-2.12 176.56-2.12L176.56-2.12Q178.52-2.12 179.80-3.02Q181.08-3.92 181.84-5.72L181.84-5.72L183.08-5Q182.08-2.56 180.28-1.08Q178.48 0.40 174.88 0.40L174.88 0.40Q166.28 0.40 166.28-9.32L166.28-9.32Q166.28-14.24 168.46-16.72Q170.64-19.20 174.84-19.20L174.84-19.20Q179.24-19.20 181.22-16.64Q183.20-14.08 183.20-9.68L183.20-9.68ZM171.16-10.76L178.32-10.76Q178.32-14.32 177.68-15.96Q177.04-17.60 175.00-17.60L175.00-17.60Q173.04-17.60 172.14-15.96Q171.24-14.32 171.16-10.76L171.16-10.76Z"/></g>
</svg>
</g></svg></svg>